<?xml version="1.0" encoding="UTF-8" standalone="no"?>
<!-- Created with Inkscape (http://www.inkscape.org/) -->

<svg
   xmlns:dc="http://purl.org/dc/elements/1.1/"
   xmlns:cc="http://creativecommons.org/ns#"
   xmlns:rdf="http://www.w3.org/1999/02/22-rdf-syntax-ns#"
   xmlns:svg="http://www.w3.org/2000/svg"
   xmlns="http://www.w3.org/2000/svg"
   xmlns:sodipodi="http://sodipodi.sourceforge.net/DTD/sodipodi-0.dtd"
   xmlns:inkscape="http://www.inkscape.org/namespaces/inkscape"
   width="64"
   height="64"
   id="svg2"
   version="1.1"
   inkscape:version="0.48.4 r"
   sodipodi:docname="statusBars01001Rev.svg"
   inkscape:export-filename="J:\Unity\RevsRandomExperiments\Kickback\Assets\Models\Textures\statusBarInnerRev.png"
   inkscape:export-xdpi="90"
   inkscape:export-ydpi="90">
  <defs
     id="defs4" />
  <sodipodi:namedview
     id="base"
     pagecolor="#ffffff"
     bordercolor="#666666"
     borderopacity="1.0"
     inkscape:pageopacity="0.0"
     inkscape:pageshadow="2"
     inkscape:zoom="7.9999999"
     inkscape:cx="9.756596"
     inkscape:cy="27.99923"
     inkscape:document-units="px"
     inkscape:current-layer="layer4"
     showgrid="false"
     showguides="true"
     inkscape:guide-bbox="true"
     inkscape:window-width="1920"
     inkscape:window-height="1028"
     inkscape:window-x="-8"
     inkscape:window-y="-8"
     inkscape:window-maximized="1">
    <sodipodi:guide
       orientation="1,0"
       position="32.075472,57.056604"
       id="guide2985" />
    <sodipodi:guide
       orientation="0,1"
       position="27.09434,32"
       id="guide2987" />
  </sodipodi:namedview>
  <metadata
     id="metadata7">
    <rdf:RDF>
      <cc:Work
         rdf:about="">
        <dc:format>image/svg+xml</dc:format>
        <dc:type
           rdf:resource="http://purl.org/dc/dcmitype/StillImage" />
        <dc:title></dc:title>
      </cc:Work>
    </rdf:RDF>
  </metadata>
  <g
     inkscape:label="LeftBar"
     inkscape:groupmode="layer"
     id="layer1"
     transform="translate(0,-988.36218)"
     style="display:none">
    <path
       style="fill:#808080;fill-opacity:1;stroke:#404040;stroke-width:1.27999997;stroke-linecap:round;stroke-linejoin:round;stroke-miterlimit:4;stroke-opacity:1;stroke-dasharray:none;stroke-dashoffset:5.9"
       d="M 13.96875,11.8125 C 13.468056,11.82353 12.906503,11.87352 12.3125,11.96875 6.5059798,16.936016 2.875,24.081538 2.875,32 c 0,10.235843 6.0757556,19.149139 15.0625,23.78125 4.678157,-0.901831 5.277801,-3.37232 3.84375,-6.625 C 15.305836,45.793481 10.90625,39.38733 10.90625,32 c 0,-5.7607 2.663069,-10.935556 6.90625,-14.53125 0.877328,-3.768142 -0.33889,-5.733489 -3.84375,-5.65625 z"
       transform="translate(0,988.36218)"
       id="path2989"
       inkscape:connector-curvature="0"
       sodipodi:nodetypes="scsccscs" />
    <path
       sodipodi:nodetypes="csccscc"
       inkscape:connector-curvature="0"
       id="path3775"
       d="m -151.78125,993.42468 c -14.31671,1.7471 -25.34375,13.14702 -25.34375,26.93752 0,13.7904 11.02704,25.1904 25.34375,26.9375 3.85672,-0.2671 3.85672,-6.1191 0,-7.5938 -9.84654,-1.6885 -17.3125,-9.6987 -17.3125,-19.3437 0,-9.6451 7.46596,-17.6553 17.3125,-19.3438 3.85672,-1.23179 3.85672,-6.27078 0,-7.59372 z"
       style="fill:none;stroke:#000000;stroke-width:1.27999997;stroke-linecap:round;stroke-linejoin:round;stroke-miterlimit:4;stroke-opacity:1;stroke-dasharray:none;stroke-dashoffset:5.9" />
  </g>
  <g
     inkscape:groupmode="layer"
     id="layer2"
     inkscape:label="RightBar"
     style="display:none">
    <path
       transform="translate(0,-988.36218)"
       sodipodi:nodetypes="scsccscs"
       inkscape:connector-curvature="0"
       id="path3793"
       d="m 50.136652,1000.5283 c 0.500694,0.011 1.062247,0.061 1.65625,0.1562 5.806521,4.9673 9.4375,12.1128 9.4375,20.0313 0,10.2358 -6.075755,19.1491 -15.0625,23.7812 -4.678157,-0.9018 -5.277801,-3.3723 -3.84375,-6.625 6.475414,-3.3627 10.875,-9.7689 10.875,-17.1562 0,-5.7607 -2.663069,-10.9356 -6.90625,-14.5313 -0.877328,-3.7681 0.33889,-5.7335 3.84375,-5.6562 z"
       style="fill:#808080;fill-opacity:1;stroke:#404040;stroke-width:1.27999997;stroke-linecap:round;stroke-linejoin:round;stroke-miterlimit:4;stroke-opacity:1;stroke-dasharray:none;stroke-dashoffset:5.9;display:inline" />
  </g>
  <g
     inkscape:groupmode="layer"
     id="layer3"
     inkscape:label="FullCircle"
     style="display:none">
    <path
       style="fill:#808080;fill-opacity:1;stroke:#404040;stroke-width:1.27999997;stroke-linecap:round;stroke-linejoin:round;stroke-miterlimit:4;stroke-opacity:1;stroke-dasharray:none;stroke-dashoffset:5.9"
       d="m 32.0625,1.5 c -16.846606,0 -30.5,13.653394 -30.5,30.5 0,16.846606 13.653394,30.5 30.5,30.5 C 48.909106,62.5 62.59375,48.846606 62.59375,32 62.59375,15.153394 48.909106,1.5 32.0625,1.5 z M 30.875,8.4375 c 0.401863,-0.020371 0.780574,0 1.1875,0 13.021616,0 23.59375,10.540884 23.59375,23.5625 0,13.021616 -10.572134,23.5625 -23.59375,23.5625 C 19.040884,55.5625 8.5,45.021616 8.5,32 8.5,19.385309 18.417242,9.0689851 30.875,8.4375 z"
       id="path2997"
       inkscape:connector-curvature="0" />
  </g>
  <g
     inkscape:label="HalfCircleOuter"
     id="g3002"
     inkscape:groupmode="layer"
     style="display:none">
    <path
       style="fill:#808080;fill-opacity:1;stroke:#404040;stroke-width:1.27999997;stroke-linecap:round;stroke-linejoin:round;stroke-miterlimit:4;stroke-opacity:1;stroke-dasharray:none;stroke-dashoffset:5.9"
       d="M 1.78125,35.53125 C 3.529462,50.715724 16.409008,62.5 32.0625,62.5 47.715992,62.5 60.622966,50.715724 62.375,35.53125 61.94735,32 56.101246,32 55.375,35.53125 53.668991,46.876027 43.884392,55.5625 32.0625,55.5625 20.240608,55.5625 10.482513,46.876027 8.78125,35.53125 8.3275697,32 2.258844,32 1.78125,35.53125 z"
       id="path3004"
       inkscape:connector-curvature="0"
       sodipodi:nodetypes="csccscc" />
  </g>
  <g
     inkscape:groupmode="layer"
     id="layer4"
     inkscape:label="HalfCircleInner"
     style="display:inline">
    <path
       sodipodi:nodetypes="csccscc"
       inkscape:connector-curvature="0"
       id="path3009"
       d="m 8.5985035,34.221095 c 1.3548381,7.403272 7.2504915,20.346778 23.4719605,20.731929 16.675176,0.395922 22.129483,-13.328657 23.487282,-20.731929 -0.331421,-1.72168 -4.862064,-1.72168 -5.424894,0 -1.322131,5.531207 -5.39083,16.603627 -18.062388,16.727942 -11.804259,0.115805 -16.728613,-11.196735 -18.047066,-16.727942 -0.351597,-1.72168 -5.0547663,-1.72168 -5.4248945,0 z"
       style="fill:#808080;fill-opacity:1;stroke:#404040;stroke-width:1.27653122;stroke-linecap:round;stroke-linejoin:round;stroke-miterlimit:4;stroke-opacity:1;stroke-dasharray:none;stroke-dashoffset:5.9" />
  </g>
</svg>
